<svg width="250px" height="250px" xmlns="http://www.w3.org/2000/svg" xmlns:xlink="http://www.w3.org/1999/xlink">
<g style="">  <path d="M180.257813,173.478516 L124.154297,66.251953 L68.929688,173.478516 L51.791016,173.478516 L124.154297,33.292969 L197.250000,173.478516 Z M125.619141,187.687500 C129.916037,187.687500,133.480455,189.127915,136.312500,192.008789 C139.144545,194.889663,140.560547,198.527322,140.560547,202.921875 C140.560547,207.023458,139.144545,210.514634,136.312500,213.395508 C133.480455,216.276382,130.062520,217.716797,126.058594,217.716797 C121.664041,217.716797,117.977554,216.276382,114.999023,213.395508 C112.020493,210.514634,110.531250,206.974630,110.531250,202.775391 C110.531250,198.673808,112.020493,195.133804,114.999023,192.155273 C117.977554,189.176743,121.517558,187.687500,125.619141,187.687500 Z " style="fill: rgba(0, 0, 0, 1.000000); " fill="#000000" stroke="none" />
</g></svg>